<?xml version="1.0" encoding="UTF-8"?> <svg xmlns="http://www.w3.org/2000/svg" id="Layer_1" data-name="Layer 1" viewBox="0 0 300 300"><defs><style>.cls-1{fill:#fff;}</style></defs><g id="My_logo" data-name="My logo"><g id="logo"><path class="cls-1" d="M120.74,131.63s-35.26-25.67,11-74.72c0,0,24.3-24.83,15.46-52.92.46-.25,36.75,25.92-10.68,75C136.51,79,110.26,100,120.74,131.63Z"></path><path class="cls-1" d="M143.61,222.42s-35.26-25.67,11-74.72c0,0,24.3-24.83,15.46-52.92.46-.25,36.75,25.92-10.68,75C159.38,169.81,133.12,190.78,143.61,222.42Z"></path><path class="cls-1" d="M160.56,127.32l-35.93-20.76a1.52,1.52,0,0,1-.55-2.07l2.79-4.83a1.52,1.52,0,0,1,2.07-.55l35.93,20.76a1.52,1.52,0,0,1,.55,2.07l-2.79,4.83A1.54,1.54,0,0,1,160.56,127.32Z"></path><path class="cls-1" d="M161.91,112.55,136.76,98l2.79-4.83a3,3,0,0,1,4.13-1.11l19.91,11.5a3,3,0,0,1,1.11,4.13Z"></path><path class="cls-1" d="M145.82,134.34l-19.91-11.5a3,3,0,0,1-1.11-4.13l2.79-4.83,25.15,14.53L150,133.24A3,3,0,0,1,145.82,134.34Z"></path><path class="cls-1" d="M69.49,113c0,34.37,25,65.51,56.64,74.28l3-6.84.16-.67a68.83,68.83,0,0,1,6-134.73l3.62-7.72C100.81,40.81,69.49,74.06,69.49,113Z"></path><path class="cls-1" d="M164.52,39.25l-1.65,7a68.83,68.83,0,0,1-8.48,135.09l-4,7.79c39.23-2.25,71.74-36.35,71.74-76.13C222.16,78.05,197,47.44,164.52,39.25Z"></path></g><path class="cls-1" d="M113,232.78h12.12v2.44H115.9v7.48h8.52v2.41H115.9V255.3H113Z"></path><path class="cls-1" d="M150.44,255.29c-.63-.63-1.24-1.27-2.1-2.2a9.25,9.25,0,0,1-6.58,2.57c-4.38,0-6.91-2.94-6.91-6.31,0-3.07,1.84-5.18,4.41-6.58v-.1a7.74,7.74,0,0,1-1.87-4.71,5.46,5.46,0,0,1,5.71-5.54,4.68,4.68,0,0,1,5,4.78c0,2.37-1.37,4.24-4.94,6v.1c1.9,2.2,4,4.68,5.48,6.28a16.37,16.37,0,0,0,2.17-6.58h2.67c-.6,3.54-1.57,6.35-3.24,8.32,1.2,1.27,2.37,2.54,3.71,4h-3.49Zm-3.54-3.87c-1.34-1.47-3.84-4.21-6.35-7.08a5.55,5.55,0,0,0-2.91,4.58,4.44,4.44,0,0,0,4.61,4.54A6.29,6.29,0,0,0,146.9,251.42Zm-6.85-13.73a6.3,6.3,0,0,0,1.7,4c2.27-1.3,3.74-2.51,3.74-4.41a2.65,2.65,0,0,0-2.6-2.91C141,234.42,140.05,236,140.05,237.69Z"></path><path class="cls-1" d="M163.64,233.08a41.28,41.28,0,0,1,6.18-.47c4.17,0,7.15,1,9.12,2.81s3.17,4.44,3.17,8.08a11.93,11.93,0,0,1-3.24,8.75c-2.1,2.1-5.58,3.24-10,3.24a46.2,46.2,0,0,1-5.28-.27V233.08Zm2.9,19.91a18.75,18.75,0,0,0,2.94.17c6.21,0,9.59-3.47,9.59-9.55,0-5.31-3-8.68-9.12-8.68a16.38,16.38,0,0,0-3.41.3Z"></path><path class="cls-1" d="M26.5,279,24.16,286h-3l7.65-22.51h3.51L40,286H36.88L34.48,279Zm7.38-2.28-2.2-6.48c-.5-1.47-.83-2.81-1.17-4.11h-.07c-.33,1.34-.7,2.71-1.14,4.08l-2.2,6.51Z"></path><path class="cls-1" d="M57.16,262.31v19.54c0,1.44,0,3.07.13,4.17H54.65l-.13-2.81h-.07a6,6,0,0,1-5.51,3.17c-3.91,0-6.91-3.31-6.91-8.22,0-5.38,3.31-8.68,7.25-8.68A5.42,5.42,0,0,1,54.16,272h.07V262.3h2.93Zm-2.94,14.13a5.23,5.23,0,0,0-.13-1.24,4.32,4.32,0,0,0-4.24-3.41c-3,0-4.84,2.67-4.84,6.25,0,3.27,1.6,6,4.78,6a4.42,4.42,0,0,0,4.31-3.51,5.11,5.11,0,0,0,.13-1.27v-2.8Z"></path><path class="cls-1" d="M63.17,269.86l3.17,9.08a42.14,42.14,0,0,1,1.3,4.14h.1c.37-1.34.83-2.67,1.37-4.14l3.14-9.08h3.07L69,286H66.16L60,269.86Z"></path><path class="cls-1" d="M87.06,286l-.23-2h-.1a6,6,0,0,1-4.94,2.4,4.6,4.6,0,0,1-4.94-4.64c0-3.91,3.47-6.05,9.72-6v-.33c0-1.34-.37-3.74-3.67-3.74a8.12,8.12,0,0,0-4.21,1.2L78,270.93a10,10,0,0,1,5.31-1.44c4.94,0,6.15,3.37,6.15,6.61v6a22.93,22.93,0,0,0,.27,3.88H87.06Zm-.44-8.25c-3.21-.07-6.85.5-6.85,3.64a2.61,2.61,0,0,0,2.77,2.81,4,4,0,0,0,3.91-2.71,3.05,3.05,0,0,0,.17-.94Z"></path><path class="cls-1" d="M94.21,274.24c0-1.67,0-3-.13-4.38h2.61l.17,2.67h.07a5.93,5.93,0,0,1,5.34-3c2.24,0,5.71,1.34,5.71,6.88V286H105V276.7c0-2.61-1-4.78-3.74-4.78a4.17,4.17,0,0,0-3.94,3,4.35,4.35,0,0,0-.2,1.37V286H94.22V274.24Z"></path><path class="cls-1" d="M124.27,285.43a10.82,10.82,0,0,1-4.64.94c-4.88,0-8-3.31-8-8.25s3.41-8.58,8.68-8.58a9.9,9.9,0,0,1,4.08.83l-.67,2.27a6.81,6.81,0,0,0-3.41-.77c-3.71,0-5.71,2.74-5.71,6.11,0,3.74,2.4,6,5.61,6a8.35,8.35,0,0,0,3.61-.8Z"></path><path class="cls-1" d="M129.35,278.48c.07,4,2.6,5.61,5.54,5.61a10.83,10.83,0,0,0,4.48-.83l.5,2.1a13.1,13.1,0,0,1-5.38,1c-5,0-8-3.27-8-8.15s2.87-8.72,7.58-8.72c5.28,0,6.68,4.64,6.68,7.62a11.84,11.84,0,0,1-.1,1.37Zm8.62-2.11c0-1.87-.77-4.78-4.07-4.78-3,0-4.28,2.74-4.51,4.78Z"></path><path class="cls-1" d="M158.41,262.31v19.54c0,1.44,0,3.07.13,4.17H155.9l-.13-2.81h-.07a6,6,0,0,1-5.51,3.17c-3.91,0-6.91-3.31-6.91-8.22,0-5.38,3.31-8.68,7.25-8.68a5.42,5.42,0,0,1,4.88,2.47h.07V262.3h2.93Zm-2.94,14.13a5.23,5.23,0,0,0-.13-1.24,4.32,4.32,0,0,0-4.24-3.41c-3,0-4.84,2.67-4.84,6.25,0,3.27,1.6,6,4.78,6a4.42,4.42,0,0,0,4.31-3.51,5.11,5.11,0,0,0,.13-1.27v-2.8Z"></path><path class="cls-1" d="M170.47,263.82a27.88,27.88,0,0,1,5.31-.47c2.91,0,4.78.5,6.18,1.64a4.71,4.71,0,0,1,1.87,4A5.34,5.34,0,0,1,180,273.9V274a5.79,5.79,0,0,1,4.64,5.64,6.08,6.08,0,0,1-1.9,4.51c-1.57,1.44-4.11,2.1-7.78,2.1a32.87,32.87,0,0,1-4.51-.27Zm2.91,9.21H176c3.07,0,4.88-1.6,4.88-3.77,0-2.64-2-3.67-4.94-3.67a12.45,12.45,0,0,0-2.57.2V273Zm0,10.79a15.64,15.64,0,0,0,2.44.13c3,0,5.78-1.1,5.78-4.38,0-3.07-2.64-4.34-5.81-4.34h-2.41Z"></path><path class="cls-1" d="M191.75,265.32a1.82,1.82,0,0,1-3.64,0,1.79,1.79,0,0,1,1.84-1.84A1.75,1.75,0,0,1,191.75,265.32ZM188.47,286V269.86h2.94V286Z"></path><path class="cls-1" d="M210.92,277.81c0,6-4.14,8.58-8,8.58-4.38,0-7.75-3.21-7.75-8.32,0-5.41,3.54-8.58,8-8.58C207.78,269.49,210.92,272.87,210.92,277.81Zm-12.83.17c0,3.54,2,6.21,4.91,6.21s4.91-2.64,4.91-6.28c0-2.74-1.37-6.21-4.84-6.21S198.09,274.9,198.09,278Z"></path><path class="cls-1" d="M218.17,265.22v4.64h4.21v2.24h-4.21v8.72c0,2,.57,3.14,2.21,3.14a6.46,6.46,0,0,0,1.7-.2l.13,2.21a7.3,7.3,0,0,1-2.61.4,4,4,0,0,1-3.17-1.24c-.83-.87-1.14-2.31-1.14-4.21V272.1h-2.5v-2.24h2.5V266Z"></path><path class="cls-1" d="M227.32,278.48c.07,4,2.61,5.61,5.54,5.61a10.83,10.83,0,0,0,4.48-.83l.5,2.1a13.1,13.1,0,0,1-5.38,1c-5,0-8-3.27-8-8.15s2.87-8.72,7.58-8.72c5.28,0,6.68,4.64,6.68,7.62a11.84,11.84,0,0,1-.1,1.37Zm8.62-2.11c0-1.87-.77-4.78-4.08-4.78-3,0-4.28,2.74-4.51,4.78Z"></path><path class="cls-1" d="M254,285.43a10.82,10.82,0,0,1-4.64.94c-4.88,0-8.05-3.31-8.05-8.25s3.41-8.58,8.68-8.58a9.81,9.81,0,0,1,4.07.83l-.67,2.27a6.81,6.81,0,0,0-3.41-.77c-3.71,0-5.71,2.74-5.71,6.11,0,3.74,2.4,6,5.61,6a8.35,8.35,0,0,0,3.61-.8Z"></path><path class="cls-1" d="M257.39,262.31h2.94V272.4h.07a5.5,5.5,0,0,1,2.1-2.07,6.06,6.06,0,0,1,3-.84c2.17,0,5.65,1.34,5.65,6.92V286h-2.94v-9.29c0-2.61-1-4.81-3.74-4.81a4.23,4.23,0,0,0-3.94,2.94,3.48,3.48,0,0,0-.2,1.4V286H257.4V262.31Z"></path></g></svg> 